# xmcd
#
# Track frame offsets:
# 150
# 20509
# 34422
# 47374
# 56374
# 70059
# 86526
# 102627
# 124682
#
# Disc length: 1855 seconds
#
# Revision: 0
# Processed by: cddbd v1.5.1PL2 Copyright (c) Steve Scherf et al.
# Submitted via: Audion 3.0.2 (http://www.panic.com/audion/)
#
DISCID=71073d09
DTITLE=Anita Pearce - Mercy
DYEAR=1900
DGENRE=
TTITLE0=His Mercy is Still the Same
TTITLE1=At Calvary
TTITLE2=You're All I Need
TTITLE3=Paid in Full
TTITLE4=Please Release Me
TTITLE5=Heaven Holds All the Answers
TTITLE6=The Castle of My Heart
TTITLE7=He'll do It Again
TTITLE8=He Just Keeps On Loving Me
EXTD=
EXTT0=
EXTT1=
EXTT2=
EXTT3=
EXTT4=
EXTT5=
EXTT6=
EXTT7=
EXTT8=
PLAYORDER=
